<?xml version="1.0" standalone="no"?>
<!DOCTYPE svg PUBLIC "-//W3C//DTD SVG 20010904//EN"
 "http://www.w3.org/TR/2001/REC-SVG-20010904/DTD/svg10.dtd">
<svg version="1.0" xmlns="http://www.w3.org/2000/svg"
 width="300.000000pt" height="300.000000pt" viewBox="0 0 300.000000 300.000000"
 preserveAspectRatio="xMidYMid meet">
<metadata>
Created by potrace 1.11, written by Peter Selinger 2001-2013
</metadata>
<g transform="translate(0.000000,300.000000) scale(0.100000,-0.100000)"
fill="#000000" stroke="none">
<path d="M1350 2934 c-633 -78 -1127 -530 -1262 -1157 -29 -135 -31 -406 -5
-540 117 -591 565 -1042 1146 -1158 145 -29 313 -34 457 -15 427 56 799 291
1033 651 216 332 285 756 184 1140 -141 538 -557 936 -1106 1056 -90 20 -360
33 -447 23z m360 -79 c499 -75 922 -424 1093 -901 55 -154 72 -263 72 -469 -1
-260 -29 -392 -123 -580 -80 -160 -150 -236 -280 -303 -112 -59 -205 -82 -347
-89 -251 -11 -418 65 -497 225 -31 63 -33 72 -33 177 0 104 2 113 30 164 48
87 112 111 241 91 73 -12 91 -23 135 -84 32 -43 37 -66 15 -66 -27 0 -28 -21
-2 -60 16 -25 23 -46 19 -57 -4 -9 10 1 30 24 39 42 48 82 23 102 -7 6 -20 9
-27 6 -10 -4 -20 11 -34 47 -11 29 -21 55 -22 58 -2 3 41 5 95 5 80 0 105 4
143 23 25 12 51 22 58 22 7 0 9 5 5 11 -4 8 0 9 15 4 15 -4 19 -3 16 7 -3 7 6
35 20 62 14 27 25 59 25 70 0 12 9 29 20 39 26 22 25 33 -5 62 -28 28 -45 32
-45 10 0 -9 -7 -27 -16 -40 -18 -28 -11 -60 11 -51 25 9 18 -39 -10 -73 -24
-28 -74 -52 -139 -66 -27 -6 -28 -5 -22 22 12 48 83 186 117 227 53 63 159
121 159 86 0 -5 9 -14 20 -20 23 -12 54 0 81 34 16 19 15 21 -34 44 -56 27
-84 21 -80 -17 2 -13 -3 -21 -13 -21 -77 0 -266 -201 -297 -317 -6 -24 -16
-43 -22 -43 -7 0 -79 14 -161 31 -99 21 -163 29 -191 25 -24 -3 -43 -4 -43 -2
0 2 33 22 73 44 40 22 96 61 123 86 28 24 69 52 92 62 38 15 122 94 122 115 0
5 11 9 24 9 32 0 39 25 20 67 l-17 35 -24 -29 c-16 -19 -22 -36 -19 -55 3 -16
-2 -35 -14 -50 -20 -26 -86 -65 -94 -57 -8 8 26 93 41 102 18 11 16 31 -6 51
-17 16 -19 15 -31 -14 -9 -23 -10 -34 -2 -42 8 -8 2 -23 -20 -56 -48 -69 -107
-122 -173 -153 -56 -27 -135 -39 -135 -21 0 15 81 126 128 176 58 60 146 119
221 146 31 12 90 37 133 57 l76 35 54 -26 c29 -14 80 -42 113 -61 54 -32 66
-35 115 -31 137 12 140 13 147 80 l6 47 -42 -27 c-28 -19 -41 -35 -41 -51 0
-24 -14 -28 -85 -23 -41 3 -62 16 -135 82 l-62 57 35 43 c19 24 44 62 56 86
17 34 32 47 75 66 33 15 57 32 61 45 3 12 10 19 15 16 13 -8 21 25 10 45 -9
16 -40 40 -52 40 -2 0 -4 -20 -6 -45 -2 -26 2 -45 8 -45 24 0 7 -19 -35 -39
-25 -12 -46 -21 -48 -21 -1 0 -2 29 -2 64 0 49 3 62 12 54 18 -15 33 0 33 33
0 34 -2 35 -36 12 -25 -16 -25 -16 -19 8 8 35 -7 50 -55 56 -40 6 -43 4 -36
-13 4 -10 10 -31 13 -46 5 -27 13 -32 39 -29 18 2 25 -28 18 -76 -6 -41 -24
-71 -24 -40 0 9 -12 17 -29 19 -26 4 -28 2 -22 -16 4 -12 18 -25 29 -31 12 -5
22 -13 22 -16 0 -3 -16 -27 -35 -53 l-36 -46 -21 20 c-24 22 -38 18 -38 -12 0
-15 5 -19 20 -15 11 3 17 1 14 -4 -7 -12 -65 -42 -62 -32 4 17 -14 54 -25 50
-7 -2 -16 -16 -22 -31 -7 -21 -6 -29 5 -36 8 -6 12 -10 8 -10 -3 0 -13 -3 -22
-6 -13 -5 -16 3 -16 46 0 29 7 67 16 86 21 43 63 79 78 64 17 -17 46 -11 55
12 11 29 2 71 -13 59 -6 -5 -24 -11 -41 -13 -23 -2 -30 -8 -28 -22 1 -11 -16
-39 -36 -63 -24 -26 -44 -64 -55 -100 -28 -98 -31 -100 -150 -148 -89 -35
-104 -39 -80 -20 34 28 28 45 -27 83 l-34 24 -9 -53 c-8 -47 -7 -54 12 -69 20
-17 20 -17 -24 -54 -24 -21 -61 -61 -80 -89 -20 -29 -33 -43 -29 -32 19 58 35
155 44 280 11 146 28 223 64 289 21 37 23 38 67 32 25 -4 76 -9 113 -13 45 -4
67 -10 64 -17 -3 -6 -2 -29 2 -50 l6 -39 33 27 c36 32 43 66 12 66 -34 0 -22
14 23 28 62 19 112 56 131 96 9 20 20 35 24 35 39 -6 43 27 8 67 l-23 28 -17
-33 c-10 -17 -16 -42 -14 -53 2 -16 -9 -31 -40 -55 -56 -43 -64 -42 -56 5 9
49 35 110 41 95 2 -6 -3 -23 -12 -37 -20 -30 -11 -49 18 -40 34 10 38 26 15
62 -20 32 -20 33 -2 54 19 21 19 21 -3 9 -12 -6 -31 -24 -43 -41 -20 -28 -22
-29 -45 -14 -28 18 -45 12 -45 -17 0 -24 25 -35 44 -20 12 10 12 6 0 -26 -7
-21 -13 -48 -14 -60 0 -22 -4 -23 -74 -23 -40 0 -87 5 -104 11 l-31 10 74 71
c78 73 115 133 115 185 0 23 4 30 18 29 12 -1 18 7 20 26 3 22 -3 32 -30 48
-18 11 -36 20 -39 20 -4 0 -10 -21 -14 -47 -5 -38 -4 -49 10 -59 14 -11 16
-18 7 -44 -6 -17 -21 -45 -33 -62 -18 -24 -24 -27 -30 -16 -18 33 -9 188 13
215 14 18 1 48 -26 61 -22 10 -24 8 -31 -26 -5 -28 -3 -39 10 -49 13 -9 16
-19 11 -39 l-7 -27 -27 29 c-15 16 -26 36 -24 45 7 29 -26 49 -80 49 -48 0
-50 -1 -36 -17 9 -10 23 -35 33 -55 18 -40 50 -51 61 -23 5 12 9 13 21 3 37
-31 81 -181 60 -207 -7 -8 -53 -47 -103 -87 -50 -40 -101 -88 -113 -108 -13
-20 -24 -36 -26 -36 -3 0 -16 17 -30 37 -16 25 -25 51 -25 78 0 38 1 40 32 40
26 0 34 5 45 33 l13 32 -35 0 c-28 0 -38 -5 -45 -22 -12 -31 -11 -9 5 102 9
65 15 88 20 73 15 -46 59 -34 57 16 0 17 -5 38 -10 46 -7 14 -13 12 -40 -13
-17 -16 -33 -40 -36 -53 -29 -152 -27 -145 -46 -121 -27 33 -37 102 -16 117
22 16 22 59 0 51 -9 -3 -20 -6 -26 -6 -5 0 -7 -12 -3 -28 6 -27 4 -28 -25 -24
-25 4 -30 1 -30 -17 0 -26 28 -40 41 -20 6 10 9 4 9 -19 0 -41 24 -100 45
-108 10 -4 15 -19 15 -44 0 -41 -14 -61 -24 -35 -12 33 -46 10 -46 -31 0 -18
50 -19 51 -1 1 24 18 -28 18 -59 1 -17 12 -53 26 -80 25 -48 25 -51 15 -154
-6 -58 -16 -125 -21 -149 -32 -142 -115 -170 -211 -70 -68 69 -69 85 -15 155
41 53 65 110 81 195 5 21 10 25 30 22 36 -7 42 25 15 86 -25 60 -49 85 -49 52
0 -12 -11 -39 -25 -59 -30 -45 -31 -57 -5 -75 16 -11 19 -21 14 -41 l-6 -25
-33 25 c-28 21 -33 22 -39 8 -10 -26 -7 -51 9 -64 12 -10 18 -9 31 4 26 26 28
11 5 -36 -25 -52 -80 -120 -91 -113 -4 3 -16 48 -26 102 -16 84 -16 97 -4 101
8 3 32 22 52 43 42 44 64 123 55 201 -4 31 -1 60 8 83 8 19 15 53 15 75 0 29
4 40 15 40 22 0 18 34 -5 55 -22 20 -22 20 -39 -12 -15 -29 -14 -43 3 -43 13
0 13 -15 0 -79 -8 -40 -25 -9 -31 57 -5 54 -2 68 27 129 18 37 34 62 37 56 3
-7 16 -13 29 -13 29 0 44 30 37 78 -6 36 -9 38 -29 17 -9 -8 -28 -15 -44 -15
-34 0 -62 -36 -36 -46 11 -4 8 -15 -17 -49 -36 -50 -51 -52 -55 -8 -3 27 0 31
17 26 18 -4 21 -1 21 23 -1 33 -29 92 -30 61 0 -9 -9 -25 -20 -34 -21 -19 -27
-43 -9 -43 6 0 8 -9 4 -20 -4 -11 1 -34 9 -52 9 -17 16 -54 16 -82 0 -28 9
-92 21 -142 24 -106 17 -153 -31 -207 l-28 -32 5 65 c6 81 -15 175 -62 277
-37 79 -45 112 -20 78 14 -18 16 -18 31 -3 11 11 14 25 10 42 -6 23 -9 24 -31
14 -14 -6 -25 -16 -25 -22 0 -6 -5 -4 -10 4 -11 17 -14 57 -3 47 12 -12 33 15
33 42 0 47 -12 53 -58 30 -41 -21 -57 -49 -27 -49 11 0 15 -12 15 -50 0 -47
-2 -50 -25 -50 -25 0 -25 -1 -9 -25 19 -29 40 -28 37 1 -1 10 5 3 14 -16 8
-19 18 -54 21 -78 l5 -44 -82 41 c-77 39 -105 60 -61 46 17 -5 20 -2 20 24 0
36 -10 39 -36 10 -17 -19 -19 -19 -31 -3 -23 32 -16 49 20 49 28 0 32 4 35 29
2 15 1 40 -3 53 -5 23 -8 24 -23 10 -9 -8 -27 -18 -39 -21 -36 -11 -48 -33
-29 -54 9 -10 16 -30 16 -45 0 -37 51 -91 129 -136 113 -67 131 -97 131 -225
0 -130 -10 -206 -28 -206 -27 0 -81 41 -115 88 -28 38 -33 54 -30 83 7 54 -13
112 -63 185 -56 81 -61 94 -40 94 29 0 29 29 0 72 -25 36 -29 39 -32 21 -2
-12 -10 -27 -18 -33 -21 -19 -18 -60 5 -60 11 0 21 -9 25 -22 3 -13 23 -53 45
-89 37 -61 64 -149 47 -149 -13 0 -71 63 -68 73 4 15 -19 37 -39 37 -10 0 -29
-5 -43 -12 -21 -9 -24 -14 -14 -26 7 -8 17 -24 23 -36 13 -27 55 -35 55 -10 0
15 4 14 26 -7 31 -29 98 -138 91 -146 -11 -10 -72 7 -97 28 -22 17 -22 19 -5
17 23 -4 32 26 15 47 -18 22 -29 18 -36 -10 -3 -14 -10 -22 -15 -20 -4 3 -6
11 -3 18 5 13 -32 54 -41 45 -3 -2 -8 -19 -11 -38 -7 -30 -5 -33 14 -28 15 4
28 -4 51 -32 35 -44 93 -74 130 -67 20 4 34 -2 57 -25 17 -16 49 -35 70 -43
37 -13 38 -14 50 -81 12 -70 75 -250 102 -292 29 -45 1 -34 -62 25 -50 47 -95
75 -208 131 -124 60 -152 79 -196 127 -29 31 -70 94 -93 140 -35 71 -42 95
-43 147 -1 66 36 189 56 185 5 -1 15 6 21 16 10 15 8 22 -12 38 -13 10 -27 19
-31 19 -13 0 -22 -51 -11 -64 7 -8 1 -30 -19 -70 -21 -41 -30 -73 -30 -107 0
-27 -2 -49 -4 -49 -2 0 -20 7 -39 15 -20 8 -50 15 -67 15 -17 0 -29 4 -25 9 3
5 0 21 -6 35 -16 34 -60 35 -114 2 l-40 -24 26 -7 c15 -4 39 -20 55 -36 33
-34 48 -36 67 -9 13 19 14 19 63 -5 70 -34 79 -43 98 -105 20 -62 51 -113 101
-169 l35 -38 -79 -21 c-130 -36 -224 -24 -310 39 -38 28 -41 34 -27 44 26 20
20 60 -15 89 l-31 26 -25 -49 c-30 -57 -26 -86 10 -77 19 4 26 -1 40 -29 9
-18 30 -44 47 -56 33 -25 26 -39 -21 -39 -19 0 -26 5 -25 17 1 22 -30 28 -68
13 -27 -10 -28 -12 -12 -29 9 -9 16 -23 16 -29 0 -19 35 -33 48 -20 7 7 12 17
12 24 0 9 69 26 105 24 119 -4 234 -14 225 -20 -13 -8 -5 -50 9 -50 13 0 34
47 27 59 -5 8 11 11 51 10 45 0 53 -2 36 -9 -26 -11 -28 -18 -9 -43 8 -10 20
-15 29 -11 18 7 31 39 22 54 -4 6 5 10 21 10 37 0 148 -77 252 -175 83 -78
162 -168 162 -185 0 -4 -53 19 -117 51 -91 46 -136 62 -193 71 -52 8 -83 18
-100 34 -51 46 -111 54 -252 32 -59 -9 -87 -9 -115 0 -49 15 -56 6 -10 -13 28
-11 69 -14 169 -13 101 2 139 0 158 -11 25 -14 24 -15 -40 -31 -36 -8 -71 -19
-78 -24 -8 -5 -20 -1 -32 9 -24 22 -52 7 -70 -35 -7 -16 -18 -30 -24 -30 -6 0
4 -9 22 -20 60 -37 102 -22 102 37 0 29 3 33 36 39 38 7 201 0 211 -9 3 -3 -4
-15 -14 -26 -11 -12 -27 -47 -37 -78 -39 -124 -96 -212 -156 -243 -49 -25 -50
-25 -50 4 0 37 -31 41 -89 13 l-50 -24 43 -42 c49 -48 88 -54 94 -14 2 12 10
24 17 27 11 4 13 -2 8 -27 -3 -18 -10 -39 -14 -49 -8 -14 -5 -15 27 -5 41 12
68 46 58 71 -4 11 -13 15 -28 11 -21 -5 -21 -5 -1 7 11 7 45 39 77 70 41 42
58 53 62 43 3 -9 22 -25 42 -37 23 -13 31 -23 24 -28 -7 -4 -10 -16 -8 -26 2
-15 15 -20 62 -24 l58 -5 -6 33 c-3 19 -10 40 -17 48 -14 17 -56 19 -61 3 -7
-22 -45 9 -68 56 -21 43 -21 46 -5 95 19 57 73 120 102 120 31 0 133 -71 185
-129 26 -28 57 -78 70 -109 20 -51 22 -74 23 -217 0 -148 -2 -163 -23 -203
-59 -110 -227 -170 -439 -157 -201 11 -407 86 -516 185 -63 58 -131 168 -183
295 -128 312 -136 663 -24 980 158 444 551 790 1005 884 55 11 114 22 130 24
76 10 279 5 365 -8z"/>
<path d="M1570 2611 c0 -6 5 -13 11 -17 6 -3 9 -21 6 -38 -2 -17 -2 -37 0 -43
6 -15 49 -17 58 -3 3 6 14 10 25 10 10 0 21 7 24 16 19 48 -15 84 -79 84 -25
0 -45 -4 -45 -9z"/>
<path d="M1446 2544 c-9 -24 2 -34 36 -34 l31 0 -23 25 c-27 29 -36 31 -44 9z"/>
<path d="M1652 2490 c0 -14 2 -19 5 -12 2 6 2 18 0 25 -3 6 -5 1 -5 -13z"/>
<path d="M1853 2463 c-25 -5 -30 -22 -11 -41 17 -17 58 -15 64 3 6 15 -12 46
-25 44 -3 -1 -16 -4 -28 -6z"/>
<path d="M1988 2425 c5 -26 16 -32 27 -15 7 11 -11 40 -25 40 -4 0 -5 -11 -2
-25z"/>
<path d="M2240 2442 c-77 -8 -86 -20 -44 -58 20 -19 29 -22 44 -14 19 10 36
50 28 67 -1 4 -14 7 -28 5z"/>
<path d="M1250 2427 c0 -8 8 -21 18 -30 21 -19 42 -6 42 25 0 13 -8 18 -30 18
-18 0 -30 -5 -30 -13z"/>
<path d="M2104 2395 c-7 -27 0 -55 13 -55 4 0 16 7 27 15 21 16 16 39 -13 55
-18 9 -21 7 -27 -15z"/>
<path d="M1710 2380 c-25 -6 -36 -29 -26 -56 9 -23 42 0 49 33 6 33 8 31 -23
23z"/>
<path d="M1870 2371 c0 -25 14 -41 37 -41 20 0 24 4 21 23 -2 16 -11 23 -30
25 -16 2 -28 -1 -28 -7z"/>
<path d="M1500 2331 c0 -30 18 -45 39 -31 19 11 9 42 -16 51 -21 7 -23 5 -23
-20z"/>
<path d="M1007 2324 c-16 -21 -16 -26 -3 -39 18 -18 46 -20 47 -2 2 23 -3 42
-14 54 -9 9 -16 6 -30 -13z"/>
<path d="M1820 2336 c0 -14 31 -66 39 -66 36 0 53 28 28 48 -15 13 -67 26 -67
18z"/>
<path d="M900 2300 c0 -23 26 -44 46 -36 24 9 12 39 -18 47 -23 6 -28 4 -28
-11z"/>
<path d="M1307 2304 c-9 -10 22 -44 40 -44 23 0 11 45 -12 48 -12 2 -24 0 -28
-4z"/>
<path d="M1445 2280 c-12 -37 20 -55 45 -25 10 12 10 18 0 30 -17 21 -37 19
-45 -5z"/>
<path d="M1770 2260 c9 -51 14 -56 48 -44 42 15 40 46 -3 67 -50 24 -53 22
-45 -23z"/>
<path d="M1068 2266 c-33 -12 -35 -26 -8 -51 16 -15 22 -15 35 -5 16 13 19 38
7 56 -5 7 -16 7 -34 0z"/>
<path d="M1536 2255 c-16 -24 -16 -25 8 -25 29 0 39 11 30 34 -9 22 -19 20
-38 -9z"/>
<path d="M2000 2241 c0 -47 20 -63 46 -37 19 20 18 33 -5 46 -29 15 -41 12
-41 -9z"/>
<path d="M726 2226 c-12 -50 22 -74 48 -34 8 14 6 22 -11 38 -28 25 -30 25
-37 -4z"/>
<path d="M1150 2242 c0 -14 24 -32 43 -32 13 0 17 5 13 16 -3 9 -6 18 -6 20 0
2 -11 4 -25 4 -14 0 -25 -4 -25 -8z"/>
<path d="M1940 2220 c-14 -26 -6 -40 20 -33 23 6 26 26 6 42 -12 10 -17 8 -26
-9z"/>
<path d="M1335 2200 c17 -34 30 -38 39 -14 8 21 -11 44 -35 44 -18 0 -19 -2
-4 -30z"/>
<path d="M2246 2201 c-15 -16 -22 -41 -12 -41 2 0 11 -3 19 -6 16 -6 47 20 47
41 0 21 -37 25 -54 6z"/>
<path d="M831 2191 c-24 -24 -20 -41 9 -41 22 0 33 26 21 47 -7 14 -11 13 -30
-6z"/>
<path d="M1181 2168 c16 -59 78 -69 63 -10 -5 16 -47 42 -70 42 -1 0 1 -14 7
-32z"/>
<path d="M1684 2164 c-8 -44 9 -59 43 -37 30 20 29 47 -2 61 -35 16 -33 17
-41 -24z"/>
<path d="M1108 2183 c-23 -6 -24 -51 -2 -60 21 -8 44 21 37 47 -3 11 -8 19
-12 19 -3 -1 -14 -3 -23 -6z"/>
<path d="M690 2131 c0 -36 25 -48 41 -20 8 17 7 23 -8 35 -27 20 -33 17 -33
-15z"/>
<path d="M2322 2131 c-11 -6 -10 -11 3 -25 22 -21 39 -16 43 12 4 23 -20 30
-46 13z"/>
<path d="M790 2094 c0 -22 4 -25 28 -22 19 2 28 9 30 26 3 19 -1 22 -27 22
-27 0 -31 -4 -31 -26z"/>
<path d="M1833 2110 c-29 -12 -29 -22 1 -56 l23 -28 12 23 c14 25 11 63 -4 67
-5 1 -20 -1 -32 -6z"/>
<path d="M1926 2101 c-7 -12 13 -71 25 -71 15 0 40 47 33 64 -6 17 -49 22 -58
7z"/>
<path d="M630 2070 c0 -27 3 -30 30 -30 34 0 39 18 12 43 -28 25 -42 21 -42
-13z"/>
<path d="M1114 2085 c-9 -23 4 -47 23 -43 11 2 19 14 21 31 3 22 -1 27 -18 27
-11 0 -23 -7 -26 -15z"/>
<path d="M2440 2080 c0 -23 13 -32 35 -24 21 8 15 25 -13 35 -18 7 -22 5 -22
-11z"/>
<path d="M1194 2068 c3 -13 6 -26 6 -30 0 -5 9 -8 21 -8 29 0 21 40 -10 52
-21 7 -23 6 -17 -14z"/>
<path d="M2127 2072 c-20 -22 -22 -62 -4 -62 29 0 49 25 42 53 -8 32 -16 34
-38 9z"/>
<path d="M2568 2062 c-32 -4 -53 -26 -44 -47 9 -23 44 -18 62 10 20 31 16 41
-18 37z"/>
<path d="M787 2043 c-12 -11 -7 -43 6 -43 17 0 37 20 37 37 0 13 -32 18 -43 6z"/>
<path d="M1135 2006 c-19 -14 -19 -15 -1 -35 33 -36 63 -22 52 25 -7 27 -23
30 -51 10z"/>
<path d="M1776 2001 c-16 -18 -16 -20 6 -35 28 -20 34 -20 42 0 6 17 -9 54
-23 54 -4 0 -16 -9 -25 -19z"/>
<path d="M2458 2013 c-36 -9 -12 -53 29 -53 25 0 26 3 17 38 -6 22 -13 24 -46
15z"/>
<path d="M2182 1988 c-16 -16 -15 -35 3 -42 20 -7 44 3 55 24 8 14 5 19 -13
24 -30 8 -31 8 -45 -6z"/>
<path d="M2280 1974 c0 -21 4 -25 23 -22 12 2 22 9 22 17 0 7 -10 17 -22 22
-20 7 -23 5 -23 -17z"/>
<path d="M880 1976 c0 -7 7 -19 16 -26 12 -11 18 -10 32 4 15 15 15 18 2 26
-22 14 -50 12 -50 -4z"/>
<path d="M2061 1968 c-9 -24 2 -58 19 -58 10 0 30 32 30 47 0 4 -9 14 -20 21
-18 11 -22 10 -29 -10z"/>
<path d="M604 1965 c-10 -8 -27 -15 -36 -15 -10 0 -18 -4 -18 -8 0 -12 55 -42
77 -42 41 0 59 51 24 70 -25 13 -23 13 -47 -5z"/>
<path d="M1534 1970 c-22 -8 -40 -53 -29 -70 10 -16 52 -11 59 6 8 22 7 74 -1
73 -5 0 -18 -4 -29 -9z"/>
<path d="M790 1965 c0 -3 7 -17 16 -31 13 -19 20 -22 30 -13 8 6 14 20 14 30
0 14 -7 19 -30 19 -16 0 -30 -2 -30 -5z"/>
<path d="M932 1925 c-19 -10 -21 -14 -8 -24 22 -18 51 -9 54 17 4 25 -10 27
-46 7z"/>
<path d="M1752 1905 c-2 -43 15 -53 59 -35 l30 13 -27 28 c-39 40 -60 38 -62
-6z"/>
<path d="M680 1902 c0 -10 -5 -23 -12 -30 -9 -9 -6 -12 14 -12 15 0 34 8 43
17 16 16 16 17 -1 30 -25 18 -44 16 -44 -5z"/>
<path d="M857 1895 c-16 -11 -16 -16 -5 -34 19 -30 38 -26 38 8 0 36 -9 43
-33 26z"/>
<path d="M1350 1876 c0 -40 21 -53 44 -27 22 24 20 36 -9 49 -35 16 -35 16
-35 -22z"/>
<path d="M997 1893 c-4 -3 -7 -17 -7 -30 0 -21 3 -23 23 -17 31 10 40 27 20
42 -19 14 -27 15 -36 5z"/>
<path d="M2402 1885 c-4 -9 -21 -19 -38 -24 -38 -10 -42 -34 -9 -55 40 -26 65
-7 65 49 0 48 -4 54 -18 30z"/>
<path d="M1602 1882 c-19 -13 2 -64 23 -56 8 3 15 9 15 13 0 3 3 16 6 29 5 17
2 22 -12 22 -11 0 -25 -4 -32 -8z"/>
<path d="M2026 1883 c-12 -13 -5 -54 10 -60 15 -6 34 11 34 32 0 13 -36 36
-44 28z"/>
<path d="M1060 1866 c0 -7 7 -19 15 -26 19 -16 41 1 32 24 -8 20 -47 21 -47 2z"/>
<path d="M1462 1840 c-17 -27 -15 -47 5 -58 23 -14 73 6 82 32 7 17 3 22 -28
33 -46 16 -44 16 -59 -7z"/>
<path d="M1917 1823 c-9 -54 0 -66 42 -58 65 12 64 34 -4 73 l-33 20 -5 -35z"/>
<path d="M698 1826 c-16 -21 -16 -25 -2 -30 45 -17 80 8 54 39 -17 21 -32 18
-52 -9z"/>
<path d="M920 1828 c-8 -13 -18 -28 -23 -35 -7 -11 43 -73 58 -73 3 0 10 11
15 25 7 19 5 36 -6 65 -19 46 -24 48 -44 18z"/>
<path d="M1150 1804 c0 -48 62 -82 90 -49 10 12 10 18 -1 33 -7 9 -14 19 -15
20 -1 2 -19 7 -38 12 -34 7 -36 6 -36 -16z"/>
<path d="M517 1762 c-20 -38 -16 -47 25 -57 36 -9 45 12 24 53 -23 44 -29 44
-49 4z"/>
<path d="M1578 1776 c-17 -12 -17 -14 0 -30 23 -20 38 -20 46 0 16 42 -9 59
-46 30z"/>
<path d="M2423 1776 c-30 -14 -29 -29 3 -46 22 -12 27 -12 34 0 13 20 12 23
-2 41 -10 12 -18 13 -35 5z"/>
<path d="M1050 1756 c0 -14 -4 -28 -10 -31 -5 -3 -10 -19 -10 -35 0 -31 14
-39 65 -36 26 1 30 5 33 34 3 26 -3 39 -28 62 -39 36 -50 38 -50 6z"/>
<path d="M2502 1758 c-5 -7 -12 -22 -14 -33 -2 -16 3 -21 30 -23 28 -3 32 0
32 20 0 23 -16 48 -31 48 -4 0 -11 -6 -17 -12z"/>
<path d="M2216 1745 c-9 -25 -7 -65 3 -65 21 0 59 19 64 33 7 20 -4 34 -34 42
-19 5 -28 2 -33 -10z"/>
<path d="M616 1718 c-12 -46 -8 -54 29 -55 42 -1 47 22 12 55 -29 27 -33 27
-41 0z"/>
<path d="M1747 1708 c-14 -50 -7 -58 28 -33 19 15 19 15 -2 36 l-20 21 -6 -24z"/>
<path d="M388 1713 c-22 -5 -23 -17 -3 -33 20 -16 45 -5 45 20 0 20 -8 22 -42
13z"/>
<path d="M710 1691 c0 -17 3 -31 8 -31 17 0 52 13 52 19 0 14 -16 29 -37 35
-20 7 -23 4 -23 -23z"/>
<path d="M1497 1698 c4 -7 13 -29 18 -48 16 -52 58 -51 86 1 15 29 -22 59 -72
59 -30 0 -38 -3 -32 -12z"/>
<path d="M1203 1672 c-48 -26 -54 -49 -23 -77 30 -28 74 -10 78 31 2 16 -1 39
-5 50 -8 20 -9 20 -50 -4z"/>
<path d="M2316 1641 c-14 -5 -16 -10 -8 -15 7 -4 12 -15 12 -25 0 -35 24 -43
54 -18 30 26 27 52 -7 61 -26 7 -26 7 -51 -3z"/>
<path d="M1937 1603 c-10 -10 -8 -63 2 -63 20 0 41 13 41 25 0 16 -35 47 -43
38z"/>
<path d="M2234 1555 c-9 -35 11 -58 37 -42 26 16 24 42 -6 55 -22 10 -25 9
-31 -13z"/>
<path d="M2118 1544 c-10 -21 -9 -27 3 -35 19 -12 25 -11 43 7 22 21 20 29 -9
42 -23 11 -27 9 -37 -14z"/>
<path d="M486 1518 c9 -60 30 -91 52 -78 79 46 72 101 -16 115 l-43 7 7 -44z"/>
<path d="M628 1509 c-4 -40 13 -71 27 -49 3 6 10 8 15 5 13 -8 40 6 40 22 0
18 -45 63 -63 63 -10 0 -16 -14 -19 -41z"/>
<path d="M960 1515 c-23 -37 -21 -65 5 -65 8 0 15 -4 15 -10 0 -18 39 -10 45
9 6 21 -16 84 -33 95 -6 3 -20 -10 -32 -29z"/>
<path d="M1830 1541 c0 -5 5 -13 10 -16 6 -3 10 -17 10 -31 0 -14 7 -27 16
-31 21 -8 56 32 52 60 -2 18 -10 23 -45 25 -24 2 -43 -1 -43 -7z"/>
<path d="M2398 1536 c-10 -7 -18 -18 -18 -24 0 -17 37 -24 60 -12 21 11 21 12
4 31 -20 22 -23 23 -46 5z"/>
<path d="M742 1503 c2 -22 9 -29 31 -31 22 -3 27 1 27 17 0 19 -26 41 -50 41
-6 0 -10 -12 -8 -27z"/>
<path d="M842 1503 c2 -22 9 -28 30 -30 37 -2 46 16 18 39 -33 27 -52 23 -48
-9z"/>
<path d="M2058 1486 c-23 -17 -23 -33 1 -41 20 -6 51 3 51 15 0 4 -8 14 -17
23 -15 13 -21 13 -35 3z"/>
<path d="M2187 1493 c-4 -3 -7 -17 -7 -30 0 -25 21 -31 39 -10 8 11 7 18 -7
31 -10 9 -22 13 -25 9z"/>
<path d="M1774 1452 c2 -45 13 -54 42 -36 23 16 32 39 17 47 -5 2 -20 7 -34
11 -24 5 -27 3 -25 -22z"/>
<path d="M1095 1439 c-9 -38 4 -52 39 -43 32 8 34 37 4 58 -31 22 -35 20 -43
-15z"/>
<path d="M1961 1431 c-25 -19 -17 -32 27 -45 19 -7 22 -4 22 22 0 37 -19 45
-49 23z"/>
<path d="M2136 1415 c-6 -17 2 -45 13 -45 9 0 31 22 31 32 0 4 -9 12 -19 17
-14 8 -20 7 -25 -4z"/>
<path d="M1201 1389 c-13 -37 -7 -47 29 -51 35 -4 38 31 7 60 l-25 23 -11 -32z"/>
<path d="M522 1370 l-22 -29 37 -7 c44 -8 88 12 88 41 0 16 -8 20 -41 22 -35
2 -44 -2 -62 -27z"/>
<path d="M665 1386 c-12 -9 -15 -19 -10 -35 6 -21 8 -22 26 -5 33 30 19 66
-16 40z"/>
<path d="M2512 1383 c-1 -6 -18 -21 -38 -32 -28 -17 -35 -26 -31 -42 4 -16 -5
-26 -40 -48 -25 -16 -41 -31 -35 -35 6 -3 31 10 56 29 26 19 55 35 66 35 26 0
32 17 27 66 -2 22 -4 34 -5 27z"/>
<path d="M2029 1357 c5 -7 11 -33 13 -57 4 -58 34 -67 62 -20 16 29 17 33 2
49 -19 21 -94 47 -77 28z"/>
<path d="M1942 1326 c-16 -42 -11 -54 20 -50 13 1 26 3 31 3 14 2 7 30 -16 56
l-22 27 -13 -36z"/>
<path d="M2286 1345 c-2 -7 2 -21 9 -32 13 -17 15 -17 31 -1 9 9 14 20 10 26
-10 16 -44 21 -50 7z"/>
<path d="M834 1328 c-3 -4 0 -16 5 -26 6 -11 7 -22 4 -26 -3 -3 -1 -6 5 -6 17
0 42 30 42 51 0 14 -6 18 -26 17 -14 -2 -28 -6 -30 -10z"/>
<path d="M926 1333 c-9 -9 -8 -63 2 -63 18 0 53 33 50 47 -3 16 -40 28 -52 16z"/>
<path d="M2396 1324 c-11 -28 -7 -42 12 -40 22 4 27 29 9 45 -12 9 -16 8 -21
-5z"/>
<path d="M2222 1306 c-17 -39 10 -60 48 -36 12 7 10 13 -12 33 l-26 24 -10
-21z"/>
<path d="M1102 1270 c-26 -24 -20 -45 16 -58 15 -6 35 -13 45 -17 14 -6 17 -2
17 26 0 41 -8 54 -36 63 -13 4 -27 -1 -42 -14z"/>
<path d="M2437 1250 c-23 -27 -14 -40 29 -40 38 0 45 17 16 43 -23 21 -24 21
-45 -3z"/>
<path d="M914 1209 c-16 -17 -16 -22 -4 -29 18 -12 50 -13 50 -2 0 4 3 17 6
30 5 17 2 22 -13 22 -11 0 -28 -9 -39 -21z"/>
<path d="M1033 1188 c-4 -7 -9 -23 -11 -35 -3 -26 13 -29 53 -11 l25 11 -22
24 c-24 26 -33 28 -45 11z"/>
<path d="M2358 1193 c-27 -7 -21 -31 12 -48 l30 -16 0 36 c0 35 -5 38 -42 28z"/>
<path d="M866 1134 c-27 -15 -28 -17 -10 -26 10 -6 25 -18 32 -26 16 -21 32
-5 35 34 2 34 -16 40 -57 18z"/>
<path d="M1872 1136 c-3 -6 -7 -24 -8 -39 -1 -24 1 -27 20 -21 31 9 46 24 46
44 0 20 -47 34 -58 16z"/>
<path d="M1043 1104 c-3 -8 2 -23 10 -32 15 -14 20 -14 49 0 l33 15 -32 17
c-40 20 -52 20 -60 0z"/>
<path d="M2040 1095 c0 -22 4 -25 40 -25 45 0 51 11 18 34 -34 24 -58 20 -58
-9z"/>
<path d="M1945 1088 c-20 -66 -4 -87 36 -47 20 20 20 22 3 40 -20 22 -33 24
-39 7z"/>
<path d="M807 1073 c-10 -3 -17 -8 -15 -11 2 -4 10 -19 17 -34 8 -16 17 -28
21 -28 14 0 49 46 42 56 -9 14 -42 23 -65 17z"/>
<path d="M970 1017 c0 -7 6 -21 13 -32 13 -17 15 -17 30 5 9 13 14 27 11 32
-8 13 -54 9 -54 -5z"/>
<path d="M918 993 c-23 -6 -23 -25 1 -52 19 -22 20 -22 30 -2 6 11 11 29 11
40 0 21 -8 23 -42 14z"/>
</g>
</svg>
